<svg width="764" height="250" viewBox="0 0 764 250" xmlns="http://www.w3.org/2000/svg"><g fill="none" fill-rule="evenodd"><path d="M164 125h6v4h-6v-4zm-10 7h16v4h-16v-4zm-64 1h16v4H90v-4zm68 6h12v4h-12v-4zm-68 1h10.5v4H90v-4zm0-45h22v10H90V95zm39.8 7c10.9 0 19.8 8.8 19.8 19.7 0 10.9-8.9 19.8-19.8 19.8s-19.8-8.8-19.8-19.7c0-10.9 8.9-19.8 19.8-19.8zM114 124c.2 1.7.7 3.3 1.5 4.9h3.9c-.3-1.6-.5-3.2-.6-4.9H114zm18-12.9h2.9c-.9-1.9-1.9-3.3-2.9-4.1v4.1zm4.1 3.9H132v4.9h4.8c-.1-1.8-.4-3.4-.7-4.9zm-8.2-8c-1 .8-2 2.2-2.9 4.1h2.9V107zm-.1 8h-4.1c-.4 1.5-.6 3.1-.7 4.9h4.8V115zm-9 4.9c.1-1.7.3-3.4.6-4.9h-3.9c-.8 1.5-1.3 3.2-1.5 4.9h4.8zm4.2 4.1c.1 1.7.3 3.4.7 4.9h4.1V124H123zm4.9 9H125c.9 1.9 1.9 3.3 2.9 4.1V133zm4.1 4.1c1-.8 2-2.2 2.9-4.1H132v4.1zm0-8.2h4.1c.4-1.5.6-3.1.7-4.9H132v4.9zm8.6-4.9c-.1 1.7-.3 3.3-.6 4.9h3.9c.8-1.5 1.3-3.2 1.5-4.9h-4.8zm0-4.1h4.8c-.3-1.8-.8-3.4-1.5-4.9H140c.3 1.6.5 3.2.6 4.9zm.8-9.2c-1-1-2.2-2-3.4-2.7.5.8.9 1.7 1.2 2.7h2.2zm-20-2.7c-1.2.7-2.4 1.7-3.4 2.7h2.2c.4-1 .8-1.9 1.2-2.7zm-3.4 25c1 1 2.2 1.9 3.4 2.7-.5-.8-.9-1.7-1.2-2.7H118zm20 2.7c1.2-.7 2.4-1.6 3.4-2.7h-2.2c-.4 1-.8 1.9-1.2 2.7z" fill="#D0D1D2"/><path d="M155.506 87a18.958 18.958 0 0 0-2.175 4H87a1 1 0 0 0-1 1v55a1 1 0 0 0 1 1h30.586a1 1 0 0 1 .707.293l3.414 3.414a1 1 0 0 0 .707.293h15.172a1 1 0 0 0 .707-.293l3.414-3.414a1 1 0 0 1 .707-.293H173a1 1 0 0 0 1-1v-30h1c1.02 0 2.023-.08 3-.236V147c0 .343-.034.677-.1 1h5.1a5 5 0 0 1 5 5v6a5 5 0 0 1-5 5H77a5 5 0 0 1-5-5v-6a5 5 0 0 1 5-5h5.1a4.988 4.988 0 0 1-.1-1V92a5 5 0 0 1 5-5h68.506zM184 159v-6a1 1 0 0 0-1-1h-39.586a1 1 0 0 0-.707.293l-3.414 3.414a1.002 1.002 0 0 1-.692.293c-.111.04-.228.062-.348.062h-16.506c-.12 0-.237-.022-.348-.062a1 1 0 0 1-.692-.293l-3.414-3.414a1 1 0 0 0-.707-.293H77a1 1 0 0 0-1 1v6a1 1 0 0 0 1 1h106a1 1 0 0 0 1-1z" fill="#151922"/><g transform="translate(157 81)"><rect fill="#F64F64" width="32" height="32" rx="16"/><path fill="#FFF" d="M14.74 23.66h3.94V8h-3.22L10 11.12l1.78 3.24 2.96-1.66z"/></g><path d="M379 98h13v4h-13v-4zm-23 18h71v4h-71v-4zm23 18h13v4h-13v-4zm-23 18h71v4h-71v-4z" fill="#D0D1D2" fill-rule="nonzero"/><path d="M437 115.335V124a4.978 4.978 0 0 1-1 3c.628.836 1 1.874 1 3v30a5 5 0 0 1-5 5h-80a5 5 0 0 1-5-5v-30c0-1.126.372-2.164 1-3a4.978 4.978 0 0 1-1-3V94a5 5 0 0 1 5-5h58.761a18.859 18.859 0 0 0-1.34 4H353a2 2 0 0 0-2 2v28a2 2 0 0 0 2 2h78a2 2 0 0 0 2-2v-7.026a18.967 18.967 0 0 0 4-.639zM353 129a2 2 0 0 0-2 2v28a2 2 0 0 0 2 2h78a2 2 0 0 0 2-2v-28a2 2 0 0 0-2-2h-78zm5-27a2 2 0 1 1 0-4 2 2 0 0 1 0 4zm7 0a2 2 0 1 1 0-4 2 2 0 0 1 0 4zm7 0a2 2 0 1 1 0-4 2 2 0 0 1 0 4zm-14 36a2 2 0 1 1 0-4 2 2 0 0 1 0 4zm7 0a2 2 0 1 1 0-4 2 2 0 0 1 0 4zm7 0a2 2 0 1 1 0-4 2 2 0 0 1 0 4z" fill="#151922"/><g transform="translate(413 81)"><rect fill="#F64F64" width="32" height="32" rx="16"/><path d="M10 22.92h12.02V19.6h-7.2s.04-.5 1.78-1.46l1.74-.96c2.08-1.16 3.6-2.74 3.6-5.12 0-2.8-2.22-5.06-5.9-5.06-3.02 0-6.02 1.76-5.94 5.8l3.66.42c-.1-2.36 1.5-2.72 2.3-2.72 1.32 0 1.98.9 1.98 1.68 0 .72-.34 1.54-2 2.48l-1.92 1.08c-3.16 1.8-4.12 3.84-4.12 6.42v.76z" fill="#FFF"/></g><path d="M647.381 93.193c-3.203-4.95-7.133-8.213-11.381-9.001V101.5h11.536c.34 1.4.835 2.74 1.467 4H636V123h19.473a72.314 72.314 0 0 0-1.127-10.993 18.998 18.998 0 0 0 3.704 2.255l.825.815c.327 2.565.53 5.213.597 7.923h15.477c.032.663.051 1.329.051 2s-.019 1.337-.051 2h-15.477c-.156 6.248-1.029 12.167-2.484 17.5h13.071a41.081 41.081 0 0 1-2.493 4h-11.818c-2.218 6.377-5.311 11.698-8.984 15.455a40.838 40.838 0 0 1-25.528 0c-3.672-3.757-6.766-9.078-8.984-15.455h-11.818a41.081 41.081 0 0 1-2.493-4h13.071c-1.455-5.333-2.328-11.252-2.484-17.5h-15.477a41.449 41.449 0 0 1-.051-2c0-.671.019-1.337.051-2h15.477c.156-6.248 1.029-12.167 2.484-17.5h-13.071a41.081 41.081 0 0 1 2.493-4h11.818c2.218-6.377 5.312-11.698 8.984-15.455a40.838 40.838 0 0 1 25.528 0c.76.777 1.495 1.621 2.202 2.528a18.862 18.862 0 0 0-1.585 4.62zm5.436 51.307c1.54-5.28 2.489-11.23 2.656-17.5H636v17.5h16.817zM636 165.808c6.309-1.17 11.918-7.801 15.484-17.308H636v17.308zm-4-64.308V84.192c-6.309 1.17-11.918 7.801-15.484 17.308H632zm0 21.5v-17.5h-16.817c-1.54 5.28-2.489 11.23-2.656 17.5H632zm0 21.5V127h-19.473c.167 6.27 1.116 12.22 2.656 17.5H632zm0 21.308V148.5h-15.484c3.566 9.507 9.175 16.138 15.484 17.308z" fill="#D0D1D2"/><path d="M649.752 87.146A40.777 40.777 0 0 0 634 84c-22.607 0-41 18.393-41 41s18.393 41 41 41 41-18.393 41-41a40.97 40.97 0 0 0-1.088-9.403c1.33-.279 2.61-.696 3.823-1.237A45.114 45.114 0 0 1 679 125c0 24.853-20.147 45-45 45s-45-20.147-45-45 20.147-45 45-45c6.505 0 12.688 1.38 18.272 3.864-.954.997-1.8 2.097-2.52 3.282z" fill="#151922"/><g transform="translate(651 81)"><rect fill="#F64F64" width="32" height="32" rx="16"/><path d="M16.22 23.9c1.54 0 3.1-.46 4.22-1.36 1.18-.92 1.9-2.3 1.9-4 0-2.2-1.56-4.24-3.9-4.7l3.46-2.72V8H10.56v3.3h6.48l-3.94 3.08 1.74 2.56c.72-.44 1.38-.42 1.38-.42 1.6 0 2.2 1.1 2.2 2.02 0 .98-.78 2.02-2.26 2.02-1.48 0-2.44-1.06-2.5-2.5l-3.66.6c.24 2.64 2.2 5.24 6.22 5.24z" fill="#FFF"/></g><path d="M479 119h8v4h-8v-4zm32 0h8v4h-8v-4zm32 0h8v4h-8v-4zm-80 0h8v4h-8v-4zm32 0h8v4h-8v-4zm32 0h8v4h-8v-4zm32 0h8v4h-8v-4zm-80 8h8v4h-8v-4zm32 0h8v4h-8v-4zm32 0h8v4h-8v-4zm-80 0h8v4h-8v-4zm32 0h8v4h-8v-4zm32 0h8v4h-8v-4zm32 0h8v4h-8v-4z" fill="#A9EAEA"/><path d="M206 127h120v4H206v-4zm0-8h120v4H206v-4z" fill="#2ACCCC"/><g transform="translate(236 110)"><rect fill="#2ACCCC" width="60" height="30" rx="15"/><path d="M19.406 21.895c3.186 0 4.942-2.118 4.942-4.201 0-1.912-1.309-3.513-3.805-3.96l-1.877-.345c-.981-.19-1.395-.757-1.395-1.394 0-.792.81-1.498 1.963-1.498 1.378 0 2.135.792 2.359 1.842l2.531-.758C23.883 9.86 22.368 8 19.251 8c-2.582 0-4.769 1.79-4.769 4.201 0 2.049 1.412 3.444 3.599 3.874l1.91.379c.93.19 1.533.74 1.533 1.412 0 .826-.74 1.515-2.032 1.515-1.48 0-2.668-.81-2.892-2.29l-2.6.62c.43 2.548 2.17 4.184 5.406 4.184zm11.743 0c3.185 0 4.941-2.118 4.941-4.201 0-1.912-1.308-3.513-3.805-3.96l-1.876-.345c-.982-.19-1.395-.757-1.395-1.394 0-.792.81-1.498 1.963-1.498 1.377 0 2.135.792 2.359 1.842l2.53-.758C35.627 9.86 34.11 8 30.995 8c-2.583 0-4.77 1.79-4.77 4.201 0 2.049 1.412 3.444 3.6 3.874l1.91.379c.93.19 1.533.74 1.533 1.412 0 .826-.74 1.515-2.032 1.515-1.48 0-2.669-.81-2.893-2.29l-2.6.62c.431 2.548 2.17 4.184 5.407 4.184zm7.283-.207h8.54v-2.651h-5.768V8.207h-2.772v13.481z" fill="#FFF"/></g></g></svg>